{
  "asset": {
    "version": "2.0",
    "generator": "PEVE OA2 demo"
  },
  "scenes": [
    {
      "nodes": [
        0
      ]
    }
  ],
  "nodes": [
    {
      "mesh": 0
    }
  ],
  "meshes": [
    {
      "primitives": [
        {
          "attributes": {
            "POSITION": 0,
            "COLOR_0": 1
          },
          "indices": 2
        }
      ]
    }
  ],
  "buffers": [
    {
      "uri": "cell-demo.bin",
      "byteLength": 92
    }
  ],
  "bufferViews": [
    {
      "buffer": 0,
      "byteOffset": 0,
      "byteLength": 36,
      "target": 34962
    },
    {
      "buffer": 0,
      "byteOffset": 36,
      "byteLength": 48,
      "target": 34962
    },
    {
      "buffer": 0,
      "byteOffset": 84,
      "byteLength": 8,
      "target": 34963
    }
  ],
  "accessors": [
    {
      "bufferView": 0,
      "componentType": 5126,
      "count": 3,
      "type": "VEC3",
      "min": [
        -0.0866,
        -0.05,
        0.0
      ],
      "max": [
        0.0866,
        0.1,
        0.0
      ]
    },
    {
      "bufferView": 1,
      "componentType": 5126,
      "count": 3,
      "type": "VEC4"
    },
    {
      "bufferView": 2,
      "componentType": 5123,
      "count": 3,
      "type": "SCALAR"
    }
  ]
}