<svg xmlns="http://www.w3.org/2000/svg" viewBox="0 0 800 500" role="img" aria-label="Diagrama simple de célula eucarionte">
  <defs>
    <filter id="shadow" x="-20%" y="-20%" width="140%" height="140%">
      <feDropShadow dx="0" dy="6" stdDeviation="8" flood-opacity="0.25"/>
    </filter>
  </defs>
  <rect width="800" height="500" fill="white"/>
  <g filter="url(#shadow)">
    <circle cx="260" cy="260" r="170" fill="#f7d7e5" stroke="#b85b7b" stroke-width="6"/>
    <circle cx="260" cy="260" r="100" fill="#cfe8ff" stroke="#3a78c2" stroke-width="6"/>
    <circle cx="260" cy="260" r="38" fill="#ffd86b" stroke="#c28b1f" stroke-width="5"/>
    <ellipse cx="200" cy="220" rx="28" ry="16" fill="#b9f3c6" stroke="#1b7a35" stroke-width="4"/>
    <ellipse cx="315" cy="330" rx="34" ry="18" fill="#b9f3c6" stroke="#1b7a35" stroke-width="4"/>
    <g stroke="#7b2e47" stroke-width="4" fill="none" opacity="0.9">
      <path d="M160 290 C190 280, 220 295, 250 285"/>
      <path d="M150 260 C190 250, 220 265, 250 255"/>
      <path d="M160 320 C195 310, 215 330, 250 320"/>
    </g>
    <g stroke="#3a78c2" stroke-width="3" fill="none">
      <path d="M235 175 C260 155, 290 160, 305 190"/>
      <path d="M220 345 C250 370, 285 365, 302 340"/>
    </g>
  </g>
  <g font-family="Arial, sans-serif" font-size="20" fill="#111">
    <text x="470" y="120" font-size="30" font-weight="700">Célula eucarionte (esquema)</text>
    <circle cx="470" cy="170" r="8" fill="#b85b7b"/><text x="490" y="176">Membrana celular</text>
    <circle cx="470" cy="205" r="8" fill="#3a78c2"/><text x="490" y="211">Núcleo</text>
    <circle cx="470" cy="240" r="8" fill="#c28b1f"/><text x="490" y="246">Nucléolo</text>
    <circle cx="470" cy="275" r="8" fill="#1b7a35"/><text x="490" y="281">Mitocondrias (ejemplo)</text>
    <path d="M462 310 h16" stroke="#7b2e47" stroke-width="5"/><text x="490" y="316">Retículo endoplasmático (idea)</text>
    <path d="M462 345 h16" stroke="#3a78c2" stroke-width="5"/><text x="490" y="351">Cromatina/estructura nuclear (idea)</text>
  </g>
  <text x="30" y="470" font-family="Arial, sans-serif" font-size="16" fill="#444">
    Recurso didáctico generado para PEVE (reemplazable por imágenes oficiales o del texto escolar).
  </text>
</svg>
